<svg width="777" height="173" viewBox="0 0 777 173" fill="none" xmlns="http://www.w3.org/2000/svg">
<path d="M241.346 93.64H201.986V95.68C201.986 101.68 202.866 106.6 204.626 110.44C206.386 114.28 208.706 117.12 211.586 118.96C214.466 120.8 217.546 121.72 220.826 121.72C224.186 121.72 227.426 121 230.546 119.56C233.746 118.04 236.266 115.56 238.106 112.12L239.906 113.08C237.666 117.48 234.666 120.6 230.906 122.44C227.226 124.28 223.266 125.2 219.026 125.2C214.546 125.2 210.306 124.12 206.306 121.96C202.306 119.72 199.066 116.4 196.586 112C194.106 107.6 192.866 102.16 192.866 95.68C192.866 90.24 193.866 85.28 195.866 80.8C197.866 76.32 200.706 72.76 204.386 70.12C208.146 67.4 212.666 66.04 217.946 66.04C223.146 66.04 227.466 67.28 230.906 69.76C234.346 72.24 236.946 75.56 238.706 79.72C240.466 83.88 241.346 88.52 241.346 93.64ZM218.066 68.44C213.186 68.44 209.466 70.52 206.906 74.68C204.346 78.84 202.786 84 202.226 90.16H232.106C231.866 83.6 230.666 78.36 228.506 74.44C226.346 70.44 222.866 68.44 218.066 68.44ZM270.163 121.72C274.083 121.72 277.243 120.84 279.643 119.08C282.043 117.32 283.243 114.88 283.243 111.76C283.243 109.12 282.523 107 281.083 105.4C279.643 103.8 277.803 102.44 275.563 101.32C273.323 100.2 270.923 99.12 268.363 98.08C265.883 97.04 263.523 95.88 261.283 94.6C259.043 93.24 257.203 91.52 255.763 89.44C254.323 87.28 253.603 84.56 253.603 81.28C253.603 78 254.483 75.24 256.243 73C258.083 70.68 260.403 68.96 263.203 67.84C266.083 66.64 269.043 66.04 272.083 66.04C274.963 66.04 277.963 66.36 281.083 67C284.283 67.64 286.723 68.44 288.403 69.4C288.403 71.96 288.243 74.64 287.923 77.44C287.603 80.24 287.283 82.68 286.963 84.76L285.523 84.4C285.523 80.64 284.923 77.68 283.723 75.52C282.523 73.28 280.923 71.68 278.923 70.72C277.003 69.76 274.923 69.28 272.683 69.28C269.883 69.28 267.403 70.12 265.243 71.8C263.083 73.48 262.003 76.08 262.003 79.6C262.003 82 262.723 83.96 264.163 85.48C265.603 87 267.443 88.32 269.683 89.44C271.923 90.48 274.283 91.52 276.763 92.56C279.323 93.6 281.723 94.8 283.963 96.16C286.203 97.52 288.043 99.24 289.483 101.32C290.923 103.32 291.643 105.92 291.643 109.12C291.643 112.72 290.683 115.72 288.763 118.12C286.843 120.44 284.283 122.2 281.083 123.4C277.963 124.6 274.603 125.2 271.003 125.2C268.043 125.2 264.923 124.8 261.643 124C258.443 123.12 255.683 121.8 253.363 120.04C253.363 117.48 253.483 115 253.723 112.6C253.963 110.12 254.243 107.88 254.563 105.88L256.003 106.12C256.003 109.88 256.723 112.92 258.163 115.24C259.603 117.48 261.403 119.12 263.563 120.16C265.723 121.2 267.923 121.72 270.163 121.72ZM328.139 66.04C333.899 66.04 338.819 67.4 342.899 70.12C347.059 72.76 350.219 76.32 352.379 80.8C354.619 85.28 355.739 90.24 355.739 95.68C355.739 101.04 354.659 105.96 352.499 110.44C350.419 114.92 347.379 118.52 343.379 121.24C339.379 123.88 334.539 125.2 328.859 125.2C323.259 125.2 318.379 123.88 314.219 121.24C310.139 118.52 306.979 114.92 304.739 110.44C302.579 105.96 301.499 101.04 301.499 95.68C301.499 90.24 302.539 85.28 304.619 80.8C306.699 76.32 309.739 72.76 313.739 70.12C317.739 67.4 322.539 66.04 328.139 66.04ZM328.859 122.8C332.939 122.8 336.299 121.6 338.939 119.2C341.579 116.72 343.499 113.44 344.699 109.36C345.979 105.2 346.619 100.64 346.619 95.68C346.619 90.64 345.939 86.08 344.579 82C343.219 77.84 341.179 74.56 338.459 72.16C335.739 69.68 332.339 68.44 328.259 68.44C324.259 68.44 320.939 69.68 318.299 72.16C315.659 74.56 313.699 77.84 312.419 82C311.219 86.08 310.619 90.64 310.619 95.68C310.619 100.64 311.299 105.2 312.659 109.36C314.019 113.44 316.059 116.72 318.779 119.2C321.499 121.6 324.859 122.8 328.859 122.8ZM402.326 65.44C404.166 65.44 405.886 65.88 407.486 66.76C409.086 67.56 409.886 68.76 409.886 70.36C409.886 71.96 409.366 73.2 408.326 74.08C407.286 74.88 406.206 75.28 405.086 75.28C403.886 75.28 402.846 75.04 401.966 74.56C401.166 74 400.246 73.48 399.206 73C398.246 72.44 396.846 72.16 395.006 72.16C392.846 72.16 390.966 73.56 389.366 76.36C387.766 79.08 386.526 82.64 385.646 87.04C384.846 91.44 384.446 96.04 384.446 100.84C384.446 105.88 384.526 109.88 384.686 112.84C384.926 115.8 385.366 117.96 386.006 119.32C386.646 120.68 387.646 121.56 389.006 121.96C390.366 122.36 392.246 122.56 394.646 122.56L394.886 124H365.726L365.966 122.56C368.286 122.56 370.126 122.36 371.486 121.96C372.846 121.56 373.846 120.68 374.486 119.32C375.126 117.96 375.526 115.8 375.686 112.84C375.926 109.88 376.046 105.88 376.046 100.84V93.88C376.046 88.04 375.926 83.44 375.686 80.08C375.526 76.64 375.046 74.12 374.246 72.52C373.526 70.92 372.366 69.92 370.766 69.52C369.246 69.04 367.126 68.8 364.406 68.8L364.166 67.48C364.166 67.48 365.166 67.36 367.166 67.12C369.166 66.88 371.686 66.64 374.726 66.4C377.846 66.16 381.086 66.04 384.446 66.04V83.68C385.326 78 387.286 73.56 390.326 70.36C393.446 67.08 397.446 65.44 402.326 65.44ZM431.022 52.48V67.24H445.782V69.88H431.022V115.6C431.022 117.36 431.422 118.72 432.222 119.68C433.022 120.64 434.062 121.12 435.342 121.12C436.942 121.12 438.542 120.92 440.142 120.52C441.742 120.04 443.542 119.4 445.542 118.6L445.782 119.92C443.542 121.36 441.182 122.6 438.702 123.64C436.222 124.68 433.622 125.2 430.902 125.2C428.262 125.2 426.222 124.56 424.782 123.28C423.342 122 422.622 119.6 422.622 116.08V69.88H415.422V67.24C418.622 67.24 421.062 66.6 422.742 65.32C424.422 63.96 425.662 62.16 426.462 59.92C427.262 57.68 427.902 55.28 428.382 52.72L431.022 52.48ZM573.263 41.32C570.543 41.32 568.383 41.6 566.783 42.16C565.263 42.64 564.103 43.76 563.303 45.52C562.583 47.2 562.103 49.76 561.863 53.2C561.703 56.64 561.623 61.28 561.623 67.12V96.88C561.623 102.72 561.703 107.36 561.863 110.8C562.103 114.24 562.583 116.8 563.303 118.48C564.103 120.16 565.263 121.28 566.783 121.84C568.383 122.32 570.543 122.56 573.263 122.56L573.503 124H541.103L541.343 122.56C544.143 122.56 546.303 122.32 547.823 121.84C549.423 121.28 550.623 120.16 551.423 118.48C552.223 116.8 552.703 114.24 552.863 110.8C553.103 107.36 553.223 102.72 553.223 96.88V83.68H504.623V96.88C504.623 102.72 504.743 107.36 504.983 110.8C505.223 114.24 505.703 116.8 506.423 118.48C507.223 120.16 508.383 121.28 509.903 121.84C511.503 122.32 513.663 122.56 516.383 122.56L516.623 124H484.223L484.463 122.56C487.183 122.56 489.343 122.32 490.943 121.84C492.543 121.28 493.703 120.16 494.423 118.48C495.223 116.8 495.703 114.24 495.863 110.8C496.103 107.36 496.223 102.72 496.223 96.88V67.12C496.223 61.28 496.103 56.64 495.863 53.2C495.703 49.76 495.223 47.2 494.423 45.52C493.703 43.76 492.543 42.64 490.943 42.16C489.343 41.6 487.183 41.32 484.463 41.32L484.223 40H516.623L516.383 41.32C513.663 41.32 511.503 41.6 509.903 42.16C508.383 42.64 507.223 43.76 506.423 45.52C505.703 47.2 505.223 49.76 504.983 53.2C504.743 56.64 504.623 61.28 504.623 67.12V80.56H553.223V67.12C553.223 61.28 553.103 56.64 552.863 53.2C552.703 49.76 552.223 47.2 551.423 45.52C550.623 43.76 549.423 42.64 547.823 42.16C546.303 41.6 544.143 41.32 541.343 41.32L541.103 40H573.503L573.263 41.32ZM610.913 66.04C616.673 66.04 621.593 67.4 625.673 70.12C629.833 72.76 632.993 76.32 635.153 80.8C637.393 85.28 638.513 90.24 638.513 95.68C638.513 101.04 637.433 105.96 635.273 110.44C633.193 114.92 630.153 118.52 626.153 121.24C622.153 123.88 617.313 125.2 611.633 125.2C606.033 125.2 601.153 123.88 596.993 121.24C592.913 118.52 589.753 114.92 587.513 110.44C585.353 105.96 584.273 101.04 584.273 95.68C584.273 90.24 585.313 85.28 587.393 80.8C589.473 76.32 592.513 72.76 596.513 70.12C600.513 67.4 605.313 66.04 610.913 66.04ZM611.633 122.8C615.713 122.8 619.073 121.6 621.713 119.2C624.353 116.72 626.273 113.44 627.473 109.36C628.753 105.2 629.393 100.64 629.393 95.68C629.393 90.64 628.713 86.08 627.353 82C625.993 77.84 623.953 74.56 621.233 72.16C618.513 69.68 615.113 68.44 611.033 68.44C607.033 68.44 603.713 69.68 601.073 72.16C598.433 74.56 596.473 77.84 595.193 82C593.993 86.08 593.393 90.64 593.393 95.68C593.393 100.64 594.073 105.2 595.433 109.36C596.793 113.44 598.833 116.72 601.553 119.2C604.273 121.6 607.633 122.8 611.633 122.8ZM664.46 52.48V67.24H679.22V69.88H664.46V115.6C664.46 117.36 664.86 118.72 665.66 119.68C666.46 120.64 667.5 121.12 668.78 121.12C670.38 121.12 671.98 120.92 673.58 120.52C675.18 120.04 676.98 119.4 678.98 118.6L679.22 119.92C676.98 121.36 674.62 122.6 672.14 123.64C669.66 124.68 667.06 125.2 664.34 125.2C661.7 125.2 659.66 124.56 658.22 123.28C656.78 122 656.06 119.6 656.06 116.08V69.88H648.86V67.24C652.06 67.24 654.5 66.6 656.18 65.32C657.86 63.96 659.1 62.16 659.9 59.92C660.7 57.68 661.34 55.28 661.82 52.72L664.46 52.48ZM734.94 93.64H695.58V95.68C695.58 101.68 696.46 106.6 698.22 110.44C699.98 114.28 702.3 117.12 705.18 118.96C708.06 120.8 711.14 121.72 714.42 121.72C717.78 121.72 721.02 121 724.14 119.56C727.34 118.04 729.86 115.56 731.7 112.12L733.5 113.08C731.26 117.48 728.26 120.6 724.5 122.44C720.82 124.28 716.86 125.2 712.62 125.2C708.14 125.2 703.9 124.12 699.9 121.96C695.9 119.72 692.66 116.4 690.18 112C687.7 107.6 686.46 102.16 686.46 95.68C686.46 90.24 687.46 85.28 689.46 80.8C691.46 76.32 694.3 72.76 697.98 70.12C701.74 67.4 706.26 66.04 711.54 66.04C716.74 66.04 721.06 67.28 724.5 69.76C727.94 72.24 730.54 75.56 732.3 79.72C734.06 83.88 734.94 88.52 734.94 93.64ZM711.66 68.44C706.78 68.44 703.06 70.52 700.5 74.68C697.94 78.84 696.38 84 695.82 90.16H725.7C725.46 83.6 724.26 78.36 722.1 74.44C719.94 70.44 716.46 68.44 711.66 68.44ZM762.917 35.68V103.12C762.917 107.52 762.997 111.04 763.157 113.68C763.317 116.24 763.717 118.16 764.357 119.44C765.077 120.72 766.117 121.56 767.477 121.96C768.837 122.36 770.717 122.56 773.117 122.56L773.357 124H743.957L744.197 122.56C746.677 122.56 748.597 122.36 749.957 121.96C751.397 121.56 752.437 120.72 753.077 119.44C753.717 118.16 754.117 116.24 754.277 113.68C754.437 111.04 754.517 107.52 754.517 103.12V57.28C754.517 52.96 754.437 49.52 754.277 46.96C754.117 44.4 753.717 42.52 753.077 41.32C752.437 40.12 751.397 39.36 749.957 39.04C748.597 38.64 746.677 38.44 744.197 38.44L743.957 37.12C743.957 37.12 744.837 37 746.597 36.76C748.357 36.52 750.677 36.28 753.557 36.04C756.517 35.8 759.637 35.68 762.917 35.68Z" fill="#D39364"/>
<circle cx="86.5" cy="86.5" r="75.5" stroke="#D39364" stroke-width="2"/>
<circle cx="86.5" cy="86.5" r="84" stroke="#D39364" stroke-width="5"/>
<path d="M131.237 122.56L131.477 124H114.797C112.637 124 110.637 123.04 108.797 121.12C106.957 119.12 105.157 116.56 103.397 113.44C101.717 110.24 99.9166 106.88 97.9966 103.36C96.1566 99.84 94.0766 96.52 91.7566 93.4C89.5166 90.2 86.9166 87.56 83.9566 85.48C81.0766 83.32 77.6766 82.16 73.7566 82V96.88C73.7566 102.72 73.8766 107.36 74.1166 110.8C74.3566 114.24 74.8766 116.8 75.6766 118.48C76.4766 120.16 77.6366 121.28 79.1566 121.84C80.7566 122.32 82.9166 122.56 85.6366 122.56L85.8766 124H53.7166L53.9566 122.56C56.6766 122.56 58.7966 122.32 60.3166 121.84C61.9166 121.28 63.0766 120.16 63.7966 118.48C64.5166 116.8 64.9566 114.24 65.1166 110.8C65.3566 107.36 65.4766 102.72 65.4766 96.88V66.52C65.4766 60.68 65.3566 56.08 65.1166 52.72C64.9566 49.36 64.5166 46.88 63.7966 45.28C63.0766 43.68 61.9166 42.64 60.3166 42.16C58.7966 41.68 56.6766 41.44 53.9566 41.44L53.7166 40H81.5566C84.9966 40 88.4766 40.28 91.9966 40.84C95.5166 41.32 98.7566 42.28 101.717 43.72C104.757 45.16 107.197 47.24 109.037 49.96C110.877 52.6 111.797 56.08 111.797 60.4C111.797 64.48 110.797 68.08 108.797 71.2C106.797 74.24 104.197 76.72 100.997 78.64C97.7966 80.48 94.3566 81.6 90.6766 82C93.7966 83.84 96.4766 86.12 98.7166 88.84C100.957 91.48 102.957 94.32 104.717 97.36C106.477 100.4 108.197 103.4 109.877 106.36C111.557 109.32 113.357 112.04 115.277 114.52C117.197 116.92 119.437 118.88 121.997 120.4C124.557 121.84 127.637 122.56 131.237 122.56ZM73.7566 42.76V79.6H81.3166C85.0766 79.6 88.5566 78.96 91.7566 77.68C94.9566 76.4 97.5166 74.4 99.4366 71.68C101.437 68.88 102.437 65.2 102.437 60.64C102.437 54.64 100.597 50.16 96.9166 47.2C93.3166 44.24 88.1966 42.76 81.5566 42.76H73.7566Z" fill="#D39364"/>
<path d="M131.237 122.56L132.223 122.396L132.084 121.56H131.237V122.56ZM131.477 124V125H132.657L132.463 123.836L131.477 124ZM108.797 121.12L108.061 121.797L108.068 121.805L108.075 121.812L108.797 121.12ZM103.397 113.44L102.511 113.905L102.518 113.918L102.526 113.931L103.397 113.44ZM97.9966 103.36L97.1103 103.823L97.1144 103.831L97.1187 103.839L97.9966 103.36ZM91.7566 93.4L90.9373 93.9735L90.9456 93.9852L90.9541 93.9967L91.7566 93.4ZM83.9566 85.48L83.3566 86.28L83.369 86.2893L83.3816 86.2982L83.9566 85.48ZM73.7566 82L73.7973 81.0008L72.7566 80.9583V82H73.7566ZM74.1166 110.8L75.1141 110.73L75.1141 110.73L74.1166 110.8ZM75.6766 118.48L76.5794 118.05L76.5794 118.05L75.6766 118.48ZM79.1566 121.84L78.8109 122.778L78.8397 122.789L78.8692 122.798L79.1566 121.84ZM85.6366 122.56L86.623 122.396L86.4837 121.56H85.6366V122.56ZM85.8766 124V125H87.057L86.863 123.836L85.8766 124ZM53.7166 124L52.7302 123.836L52.5361 125H53.7166V124ZM53.9566 122.56V121.56H53.1094L52.9702 122.396L53.9566 122.56ZM60.3166 121.84L60.6177 122.794L60.6324 122.789L60.6469 122.784L60.3166 121.84ZM63.7966 118.48L62.8774 118.086L62.8774 118.086L63.7966 118.48ZM65.1166 110.8L64.119 110.73L64.1182 110.742L64.1176 110.754L65.1166 110.8ZM65.1166 52.72L64.1177 52.7676L64.1183 52.7794L64.1191 52.7912L65.1166 52.72ZM63.7966 45.28L62.8846 45.6904L62.8846 45.6904L63.7966 45.28ZM60.3166 42.16L60.0154 43.1136L60.0223 43.1157L60.0292 43.1178L60.3166 42.16ZM53.9566 41.44L52.9702 41.6044L53.1094 42.44H53.9566V41.44ZM53.7166 40V39H52.5361L52.7302 40.1644L53.7166 40ZM91.9966 40.84L91.8394 41.8276L91.8504 41.8293L91.8615 41.8308L91.9966 40.84ZM101.717 43.72L101.279 44.6193L101.288 44.6237L101.717 43.72ZM109.037 49.96L108.208 50.5204L108.216 50.5318L109.037 49.96ZM108.797 71.2L109.632 71.7497L109.638 71.7397L108.797 71.2ZM100.997 78.64L101.495 79.5069L101.503 79.5023L101.511 79.4975L100.997 78.64ZM90.6766 82L90.5685 81.0059L87.5742 81.3313L90.1686 82.8614L90.6766 82ZM98.7166 88.84L97.9446 89.4757L97.9493 89.4814L97.9541 89.487L98.7166 88.84ZM104.717 97.36L105.582 96.859L105.582 96.859L104.717 97.36ZM109.877 106.36L110.746 105.866L110.746 105.866L109.877 106.36ZM115.277 114.52L114.486 115.132L114.491 115.138L114.496 115.145L115.277 114.52ZM121.997 120.4L121.486 121.26L121.496 121.266L121.506 121.272L121.997 120.4ZM73.7566 42.76V41.76H72.7566V42.76H73.7566ZM73.7566 79.6H72.7566V80.6H73.7566V79.6ZM99.4366 71.68L98.6228 71.0988L98.6196 71.1033L99.4366 71.68ZM96.9166 47.2L96.2814 47.9725L96.2898 47.9792L96.9166 47.2ZM130.25 122.724L130.49 124.164L132.463 123.836L132.223 122.396L130.25 122.724ZM131.477 123H114.797V125H131.477V123ZM114.797 123C112.97 123 111.217 122.2 109.519 120.428L108.075 121.812C110.057 123.88 112.303 125 114.797 125V123ZM109.532 120.443C107.758 118.514 106.001 116.022 104.268 112.949L102.526 113.931C104.312 117.098 106.155 119.726 108.061 121.797L109.532 120.443ZM104.282 112.975C102.599 109.77 100.797 106.405 98.8745 102.881L97.1187 103.839C99.0364 107.355 100.834 110.71 102.511 113.905L104.282 112.975ZM98.8828 102.897C97.0189 99.3311 94.9111 95.9664 92.559 92.8033L90.9541 93.9967C93.242 97.0736 95.2942 100.349 97.1103 103.823L98.8828 102.897ZM92.5758 92.8265C90.2745 89.539 87.5938 86.8137 84.5315 84.6618L83.3816 86.2982C86.2393 88.3063 88.7586 90.861 90.9373 93.9735L92.5758 92.8265ZM84.5566 84.68C81.5 82.3876 77.9006 81.1683 73.7973 81.0008L73.7158 82.9992C77.4525 83.1517 80.6531 84.2524 83.3566 86.28L84.5566 84.68ZM72.7566 82V96.88H74.7566V82H72.7566ZM72.7566 96.88C72.7566 102.73 72.8766 107.396 73.119 110.87L75.1141 110.73C74.8765 107.324 74.7566 102.71 74.7566 96.88H72.7566ZM73.119 110.87C73.3616 114.346 73.8917 117.058 74.7737 118.91L76.5794 118.05C75.8614 116.542 75.3516 114.134 75.1141 110.73L73.119 110.87ZM74.7737 118.91C75.6679 120.788 77.0092 122.115 78.8109 122.778L79.5023 120.902C78.264 120.445 77.2852 119.532 76.5794 118.05L74.7737 118.91ZM78.8692 122.798C80.6023 123.318 82.8721 123.56 85.6366 123.56V121.56C82.961 121.56 80.9108 121.322 79.4439 120.882L78.8692 122.798ZM84.6502 122.724L84.8902 124.164L86.863 123.836L86.623 122.396L84.6502 122.724ZM85.8766 123H53.7166V125H85.8766V123ZM54.703 124.164L54.943 122.724L52.9702 122.396L52.7302 123.836L54.703 124.164ZM53.9566 123.56C56.7174 123.56 58.9553 123.319 60.6177 122.794L60.0154 120.886C58.6378 121.321 56.6357 121.56 53.9566 121.56V123.56ZM60.6469 122.784C62.534 122.123 63.8949 120.789 64.7157 118.874L62.8774 118.086C62.2582 119.531 61.2992 120.437 59.9862 120.896L60.6469 122.784ZM64.7157 118.874C65.508 117.025 65.9539 114.32 66.1155 110.846L64.1176 110.754C63.9592 114.16 63.5252 116.575 62.8774 118.086L64.7157 118.874ZM66.1141 110.87C66.3565 107.396 66.4766 102.73 66.4766 96.88H64.4766C64.4766 102.71 64.3566 107.324 64.119 110.73L66.1141 110.87ZM66.4766 96.88V66.52H64.4766V96.88H66.4766ZM66.4766 66.52C66.4766 60.6707 66.3565 56.0435 66.114 52.6487L64.1191 52.7912C64.3566 56.1165 64.4766 60.6893 64.4766 66.52H66.4766ZM66.1154 52.6724C65.9539 49.2806 65.5079 46.6462 64.7085 44.8696L62.8846 45.6904C63.5252 47.1138 63.9592 49.4394 64.1177 52.7676L66.1154 52.6724ZM64.7085 44.8696C63.8763 43.0204 62.4972 41.7701 60.6039 41.2022L60.0292 43.1178C61.336 43.5098 62.2768 44.3396 62.8846 45.6904L64.7085 44.8696ZM60.6177 41.2064C58.9553 40.6814 56.7174 40.44 53.9566 40.44V42.44C56.6357 42.44 58.6378 42.6785 60.0154 43.1136L60.6177 41.2064ZM54.943 41.2756L54.703 39.8356L52.7302 40.1644L52.9702 41.6044L54.943 41.2756ZM53.7166 41H81.5566V39H53.7166V41ZM81.5566 41C84.9421 41 88.3695 41.2755 91.8394 41.8276L92.1537 39.8524C88.5836 39.2844 85.051 39 81.5566 39V41ZM91.8615 41.8308C95.2848 42.2976 98.4217 43.2291 101.279 44.6192L102.154 42.8208C99.0915 41.3309 95.7484 40.3424 92.1317 39.8492L91.8615 41.8308ZM101.288 44.6237C104.171 45.9891 106.471 47.9523 108.208 50.5203L109.865 49.3997C107.922 46.5277 105.342 44.3309 102.145 42.8163L101.288 44.6237ZM108.216 50.5318C109.905 52.9553 110.797 56.2157 110.797 60.4H112.797C112.797 55.9443 111.848 52.2447 109.857 49.3882L108.216 50.5318ZM110.797 60.4C110.797 64.3087 109.841 67.7175 107.955 70.6603L109.638 71.7397C111.752 68.4425 112.797 64.6513 112.797 60.4H110.797ZM107.961 70.6504C106.046 73.5617 103.557 75.9377 100.482 77.7825L101.511 79.4975C104.836 77.5023 107.547 74.9183 109.632 71.7496L107.961 70.6504ZM100.498 77.7731C97.4184 79.5439 94.1114 80.6208 90.5685 81.0059L90.7846 82.9941C94.6018 82.5792 98.1748 81.4161 101.495 79.5069L100.498 77.7731ZM90.1686 82.8614C93.191 84.6438 95.7809 86.8483 97.9446 89.4757L99.4885 88.2043C97.1723 85.3917 94.4022 83.0362 91.1845 81.1386L90.1686 82.8614ZM97.9541 89.487C100.155 92.0808 102.121 94.8719 103.851 97.861L105.582 96.859C103.793 93.7681 101.758 90.8792 99.4791 88.193L97.9541 89.487ZM103.851 97.861C105.61 100.899 107.328 103.896 109.007 106.854L110.746 105.866C109.065 102.904 107.343 99.9014 105.582 96.859L103.851 97.861ZM109.007 106.854C110.708 109.851 112.534 112.612 114.486 115.132L116.067 113.908C114.179 111.468 112.405 108.789 110.746 105.866L109.007 106.854ZM114.496 115.145C116.488 117.636 118.819 119.676 121.486 121.26L122.507 119.54C120.054 118.084 117.905 116.204 116.057 113.895L114.496 115.145ZM121.506 121.272C124.246 122.813 127.503 123.56 131.237 123.56V121.56C127.77 121.56 124.867 120.867 122.487 119.528L121.506 121.272ZM72.7566 42.76V79.6H74.7566V42.76H72.7566ZM73.7566 80.6H81.3166V78.6H73.7566V80.6ZM81.3166 80.6C85.1922 80.6 88.7995 79.9399 92.128 78.6085L91.3852 76.7515C88.3136 77.9801 84.961 78.6 81.3166 78.6V80.6ZM92.128 78.6085C95.5007 77.2594 98.218 75.1403 100.254 72.2567L98.6196 71.1033C96.8151 73.6597 94.4124 75.5406 91.3852 76.7515L92.128 78.6085ZM100.25 72.2612C102.405 69.2442 103.437 65.3413 103.437 60.64H101.437C101.437 65.0587 100.468 68.5158 98.6228 71.0988L100.25 72.2612ZM103.437 60.64C103.437 54.4264 101.521 49.6202 97.5433 46.4208L96.2898 47.9792C99.6721 50.6997 101.437 54.8536 101.437 60.64H103.437ZM97.5517 46.4276C93.7102 43.269 88.3318 41.76 81.5566 41.76V43.76C88.0614 43.76 92.9229 45.211 96.2815 47.9724L97.5517 46.4276ZM81.5566 41.76H73.7566V43.76H81.5566V41.76Z" fill="#D39364"/>
</svg>
