<svg width="777" height="173" viewBox="0 0 777 173" fill="none" xmlns="http://www.w3.org/2000/svg">
<path d="M241.346 91.64H201.986V93.68C201.986 99.68 202.866 104.6 204.626 108.44C206.386 112.28 208.706 115.12 211.586 116.96C214.466 118.8 217.546 119.72 220.826 119.72C224.186 119.72 227.426 119 230.546 117.56C233.746 116.04 236.266 113.56 238.106 110.12L239.906 111.08C237.666 115.48 234.666 118.6 230.906 120.44C227.226 122.28 223.266 123.2 219.026 123.2C214.546 123.2 210.306 122.12 206.306 119.96C202.306 117.72 199.066 114.4 196.586 110C194.106 105.6 192.866 100.16 192.866 93.68C192.866 88.24 193.866 83.28 195.866 78.8C197.866 74.32 200.706 70.76 204.386 68.12C208.146 65.4 212.666 64.04 217.946 64.04C223.146 64.04 227.466 65.28 230.906 67.76C234.346 70.24 236.946 73.56 238.706 77.72C240.466 81.88 241.346 86.52 241.346 91.64ZM218.066 66.44C213.186 66.44 209.466 68.52 206.906 72.68C204.346 76.84 202.786 82 202.226 88.16H232.106C231.866 81.6 230.666 76.36 228.506 72.44C226.346 68.44 222.866 66.44 218.066 66.44ZM270.163 119.72C274.083 119.72 277.243 118.84 279.643 117.08C282.043 115.32 283.243 112.88 283.243 109.76C283.243 107.12 282.523 105 281.083 103.4C279.643 101.8 277.803 100.44 275.563 99.32C273.323 98.2 270.923 97.12 268.363 96.08C265.883 95.04 263.523 93.88 261.283 92.6C259.043 91.24 257.203 89.52 255.763 87.44C254.323 85.28 253.603 82.56 253.603 79.28C253.603 76 254.483 73.24 256.243 71C258.083 68.68 260.403 66.96 263.203 65.84C266.083 64.64 269.043 64.04 272.083 64.04C274.963 64.04 277.963 64.36 281.083 65C284.283 65.64 286.723 66.44 288.403 67.4C288.403 69.96 288.243 72.64 287.923 75.44C287.603 78.24 287.283 80.68 286.963 82.76L285.523 82.4C285.523 78.64 284.923 75.68 283.723 73.52C282.523 71.28 280.923 69.68 278.923 68.72C277.003 67.76 274.923 67.28 272.683 67.28C269.883 67.28 267.403 68.12 265.243 69.8C263.083 71.48 262.003 74.08 262.003 77.6C262.003 80 262.723 81.96 264.163 83.48C265.603 85 267.443 86.32 269.683 87.44C271.923 88.48 274.283 89.52 276.763 90.56C279.323 91.6 281.723 92.8 283.963 94.16C286.203 95.52 288.043 97.24 289.483 99.32C290.923 101.32 291.643 103.92 291.643 107.12C291.643 110.72 290.683 113.72 288.763 116.12C286.843 118.44 284.283 120.2 281.083 121.4C277.963 122.6 274.603 123.2 271.003 123.2C268.043 123.2 264.923 122.8 261.643 122C258.443 121.12 255.683 119.8 253.363 118.04C253.363 115.48 253.483 113 253.723 110.6C253.963 108.12 254.243 105.88 254.563 103.88L256.003 104.12C256.003 107.88 256.723 110.92 258.163 113.24C259.603 115.48 261.403 117.12 263.563 118.16C265.723 119.2 267.923 119.72 270.163 119.72ZM328.139 64.04C333.899 64.04 338.819 65.4 342.899 68.12C347.059 70.76 350.219 74.32 352.379 78.8C354.619 83.28 355.739 88.24 355.739 93.68C355.739 99.04 354.659 103.96 352.499 108.44C350.419 112.92 347.379 116.52 343.379 119.24C339.379 121.88 334.539 123.2 328.859 123.2C323.259 123.2 318.379 121.88 314.219 119.24C310.139 116.52 306.979 112.92 304.739 108.44C302.579 103.96 301.499 99.04 301.499 93.68C301.499 88.24 302.539 83.28 304.619 78.8C306.699 74.32 309.739 70.76 313.739 68.12C317.739 65.4 322.539 64.04 328.139 64.04ZM328.859 120.8C332.939 120.8 336.299 119.6 338.939 117.2C341.579 114.72 343.499 111.44 344.699 107.36C345.979 103.2 346.619 98.64 346.619 93.68C346.619 88.64 345.939 84.08 344.579 80C343.219 75.84 341.179 72.56 338.459 70.16C335.739 67.68 332.339 66.44 328.259 66.44C324.259 66.44 320.939 67.68 318.299 70.16C315.659 72.56 313.699 75.84 312.419 80C311.219 84.08 310.619 88.64 310.619 93.68C310.619 98.64 311.299 103.2 312.659 107.36C314.019 111.44 316.059 114.72 318.779 117.2C321.499 119.6 324.859 120.8 328.859 120.8ZM402.326 63.44C404.166 63.44 405.886 63.88 407.486 64.76C409.086 65.56 409.886 66.76 409.886 68.36C409.886 69.96 409.366 71.2 408.326 72.08C407.286 72.88 406.206 73.28 405.086 73.28C403.886 73.28 402.846 73.04 401.966 72.56C401.166 72 400.246 71.48 399.206 71C398.246 70.44 396.846 70.16 395.006 70.16C392.846 70.16 390.966 71.56 389.366 74.36C387.766 77.08 386.526 80.64 385.646 85.04C384.846 89.44 384.446 94.04 384.446 98.84C384.446 103.88 384.526 107.88 384.686 110.84C384.926 113.8 385.366 115.96 386.006 117.32C386.646 118.68 387.646 119.56 389.006 119.96C390.366 120.36 392.246 120.56 394.646 120.56L394.886 122H365.726L365.966 120.56C368.286 120.56 370.126 120.36 371.486 119.96C372.846 119.56 373.846 118.68 374.486 117.32C375.126 115.96 375.526 113.8 375.686 110.84C375.926 107.88 376.046 103.88 376.046 98.84V91.88C376.046 86.04 375.926 81.44 375.686 78.08C375.526 74.64 375.046 72.12 374.246 70.52C373.526 68.92 372.366 67.92 370.766 67.52C369.246 67.04 367.126 66.8 364.406 66.8L364.166 65.48C364.166 65.48 365.166 65.36 367.166 65.12C369.166 64.88 371.686 64.64 374.726 64.4C377.846 64.16 381.086 64.04 384.446 64.04V81.68C385.326 76 387.286 71.56 390.326 68.36C393.446 65.08 397.446 63.44 402.326 63.44ZM431.022 50.48V65.24H445.782V67.88H431.022V113.6C431.022 115.36 431.422 116.72 432.222 117.68C433.022 118.64 434.062 119.12 435.342 119.12C436.942 119.12 438.542 118.92 440.142 118.52C441.742 118.04 443.542 117.4 445.542 116.6L445.782 117.92C443.542 119.36 441.182 120.6 438.702 121.64C436.222 122.68 433.622 123.2 430.902 123.2C428.262 123.2 426.222 122.56 424.782 121.28C423.342 120 422.622 117.6 422.622 114.08V67.88H415.422V65.24C418.622 65.24 421.062 64.6 422.742 63.32C424.422 61.96 425.662 60.16 426.462 57.92C427.262 55.68 427.902 53.28 428.382 50.72L431.022 50.48ZM573.263 39.32C570.543 39.32 568.383 39.6 566.783 40.16C565.263 40.64 564.103 41.76 563.303 43.52C562.583 45.2 562.103 47.76 561.863 51.2C561.703 54.64 561.623 59.28 561.623 65.12V94.88C561.623 100.72 561.703 105.36 561.863 108.8C562.103 112.24 562.583 114.8 563.303 116.48C564.103 118.16 565.263 119.28 566.783 119.84C568.383 120.32 570.543 120.56 573.263 120.56L573.503 122H541.103L541.343 120.56C544.143 120.56 546.303 120.32 547.823 119.84C549.423 119.28 550.623 118.16 551.423 116.48C552.223 114.8 552.703 112.24 552.863 108.8C553.103 105.36 553.223 100.72 553.223 94.88V81.68H504.623V94.88C504.623 100.72 504.743 105.36 504.983 108.8C505.223 112.24 505.703 114.8 506.423 116.48C507.223 118.16 508.383 119.28 509.903 119.84C511.503 120.32 513.663 120.56 516.383 120.56L516.623 122H484.223L484.463 120.56C487.183 120.56 489.343 120.32 490.943 119.84C492.543 119.28 493.703 118.16 494.423 116.48C495.223 114.8 495.703 112.24 495.863 108.8C496.103 105.36 496.223 100.72 496.223 94.88V65.12C496.223 59.28 496.103 54.64 495.863 51.2C495.703 47.76 495.223 45.2 494.423 43.52C493.703 41.76 492.543 40.64 490.943 40.16C489.343 39.6 487.183 39.32 484.463 39.32L484.223 38H516.623L516.383 39.32C513.663 39.32 511.503 39.6 509.903 40.16C508.383 40.64 507.223 41.76 506.423 43.52C505.703 45.2 505.223 47.76 504.983 51.2C504.743 54.64 504.623 59.28 504.623 65.12V78.56H553.223V65.12C553.223 59.28 553.103 54.64 552.863 51.2C552.703 47.76 552.223 45.2 551.423 43.52C550.623 41.76 549.423 40.64 547.823 40.16C546.303 39.6 544.143 39.32 541.343 39.32L541.103 38H573.503L573.263 39.32ZM610.913 64.04C616.673 64.04 621.593 65.4 625.673 68.12C629.833 70.76 632.993 74.32 635.153 78.8C637.393 83.28 638.513 88.24 638.513 93.68C638.513 99.04 637.433 103.96 635.273 108.44C633.193 112.92 630.153 116.52 626.153 119.24C622.153 121.88 617.313 123.2 611.633 123.2C606.033 123.2 601.153 121.88 596.993 119.24C592.913 116.52 589.753 112.92 587.513 108.44C585.353 103.96 584.273 99.04 584.273 93.68C584.273 88.24 585.313 83.28 587.393 78.8C589.473 74.32 592.513 70.76 596.513 68.12C600.513 65.4 605.313 64.04 610.913 64.04ZM611.633 120.8C615.713 120.8 619.073 119.6 621.713 117.2C624.353 114.72 626.273 111.44 627.473 107.36C628.753 103.2 629.393 98.64 629.393 93.68C629.393 88.64 628.713 84.08 627.353 80C625.993 75.84 623.953 72.56 621.233 70.16C618.513 67.68 615.113 66.44 611.033 66.44C607.033 66.44 603.713 67.68 601.073 70.16C598.433 72.56 596.473 75.84 595.193 80C593.993 84.08 593.393 88.64 593.393 93.68C593.393 98.64 594.073 103.2 595.433 107.36C596.793 111.44 598.833 114.72 601.553 117.2C604.273 119.6 607.633 120.8 611.633 120.8ZM664.46 50.48V65.24H679.22V67.88H664.46V113.6C664.46 115.36 664.86 116.72 665.66 117.68C666.46 118.64 667.5 119.12 668.78 119.12C670.38 119.12 671.98 118.92 673.58 118.52C675.18 118.04 676.98 117.4 678.98 116.6L679.22 117.92C676.98 119.36 674.62 120.6 672.14 121.64C669.66 122.68 667.06 123.2 664.34 123.2C661.7 123.2 659.66 122.56 658.22 121.28C656.78 120 656.06 117.6 656.06 114.08V67.88H648.86V65.24C652.06 65.24 654.5 64.6 656.18 63.32C657.86 61.96 659.1 60.16 659.9 57.92C660.7 55.68 661.34 53.28 661.82 50.72L664.46 50.48ZM734.94 91.64H695.58V93.68C695.58 99.68 696.46 104.6 698.22 108.44C699.98 112.28 702.3 115.12 705.18 116.96C708.06 118.8 711.14 119.72 714.42 119.72C717.78 119.72 721.02 119 724.14 117.56C727.34 116.04 729.86 113.56 731.7 110.12L733.5 111.08C731.26 115.48 728.26 118.6 724.5 120.44C720.82 122.28 716.86 123.2 712.62 123.2C708.14 123.2 703.9 122.12 699.9 119.96C695.9 117.72 692.66 114.4 690.18 110C687.7 105.6 686.46 100.16 686.46 93.68C686.46 88.24 687.46 83.28 689.46 78.8C691.46 74.32 694.3 70.76 697.98 68.12C701.74 65.4 706.26 64.04 711.54 64.04C716.74 64.04 721.06 65.28 724.5 67.76C727.94 70.24 730.54 73.56 732.3 77.72C734.06 81.88 734.94 86.52 734.94 91.64ZM711.66 66.44C706.78 66.44 703.06 68.52 700.5 72.68C697.94 76.84 696.38 82 695.82 88.16H725.7C725.46 81.6 724.26 76.36 722.1 72.44C719.94 68.44 716.46 66.44 711.66 66.44ZM762.917 33.68V101.12C762.917 105.52 762.997 109.04 763.157 111.68C763.317 114.24 763.717 116.16 764.357 117.44C765.077 118.72 766.117 119.56 767.477 119.96C768.837 120.36 770.717 120.56 773.117 120.56L773.357 122H743.957L744.197 120.56C746.677 120.56 748.597 120.36 749.957 119.96C751.397 119.56 752.437 118.72 753.077 117.44C753.717 116.16 754.117 114.24 754.277 111.68C754.437 109.04 754.517 105.52 754.517 101.12V55.28C754.517 50.96 754.437 47.52 754.277 44.96C754.117 42.4 753.717 40.52 753.077 39.32C752.437 38.12 751.397 37.36 749.957 37.04C748.597 36.64 746.677 36.44 744.197 36.44L743.957 35.12C743.957 35.12 744.837 35 746.597 34.76C748.357 34.52 750.677 34.28 753.557 34.04C756.517 33.8 759.637 33.68 762.917 33.68Z" fill="#2F4137"/>
<circle cx="86.5" cy="86.5" r="75.5" stroke="#2F4137" stroke-width="2"/>
<circle cx="86.5" cy="86.5" r="84" stroke="#2F4137" stroke-width="5"/>
<path d="M131.237 120.56L131.477 122H114.797C112.637 122 110.637 121.04 108.797 119.12C106.957 117.12 105.157 114.56 103.397 111.44C101.717 108.24 99.9166 104.88 97.9966 101.36C96.1566 97.84 94.0766 94.52 91.7566 91.4C89.5166 88.2 86.9166 85.56 83.9566 83.48C81.0766 81.32 77.6766 80.16 73.7566 80V94.88C73.7566 100.72 73.8766 105.36 74.1166 108.8C74.3566 112.24 74.8766 114.8 75.6766 116.48C76.4766 118.16 77.6366 119.28 79.1566 119.84C80.7566 120.32 82.9166 120.56 85.6366 120.56L85.8766 122H53.7166L53.9566 120.56C56.6766 120.56 58.7966 120.32 60.3166 119.84C61.9166 119.28 63.0766 118.16 63.7966 116.48C64.5166 114.8 64.9566 112.24 65.1166 108.8C65.3566 105.36 65.4766 100.72 65.4766 94.88V64.52C65.4766 58.68 65.3566 54.08 65.1166 50.72C64.9566 47.36 64.5166 44.88 63.7966 43.28C63.0766 41.68 61.9166 40.64 60.3166 40.16C58.7966 39.68 56.6766 39.44 53.9566 39.44L53.7166 38H81.5566C84.9966 38 88.4766 38.28 91.9966 38.84C95.5166 39.32 98.7566 40.28 101.717 41.72C104.757 43.16 107.197 45.24 109.037 47.96C110.877 50.6 111.797 54.08 111.797 58.4C111.797 62.48 110.797 66.08 108.797 69.2C106.797 72.24 104.197 74.72 100.997 76.64C97.7966 78.48 94.3566 79.6 90.6766 80C93.7966 81.84 96.4766 84.12 98.7166 86.84C100.957 89.48 102.957 92.32 104.717 95.36C106.477 98.4 108.197 101.4 109.877 104.36C111.557 107.32 113.357 110.04 115.277 112.52C117.197 114.92 119.437 116.88 121.997 118.4C124.557 119.84 127.637 120.56 131.237 120.56ZM73.7566 40.76V77.6H81.3166C85.0766 77.6 88.5566 76.96 91.7566 75.68C94.9566 74.4 97.5166 72.4 99.4366 69.68C101.437 66.88 102.437 63.2 102.437 58.64C102.437 52.64 100.597 48.16 96.9166 45.2C93.3166 42.24 88.1966 40.76 81.5566 40.76H73.7566Z" fill="#2F4137"/>
<path d="M131.237 120.56L132.223 120.396L132.084 119.56H131.237V120.56ZM131.477 122V123H132.657L132.463 121.836L131.477 122ZM108.797 119.12L108.061 119.797L108.068 119.805L108.075 119.812L108.797 119.12ZM103.397 111.44L102.511 111.905L102.518 111.918L102.526 111.931L103.397 111.44ZM97.9966 101.36L97.1103 101.823L97.1144 101.831L97.1187 101.839L97.9966 101.36ZM91.7566 91.4L90.9373 91.9735L90.9456 91.9852L90.9541 91.9967L91.7566 91.4ZM83.9566 83.48L83.3566 84.28L83.3689 84.2893L83.3816 84.2982L83.9566 83.48ZM73.7566 80L73.7973 79.0008L72.7566 78.9583V80H73.7566ZM74.1166 108.8L75.1141 108.73L74.1166 108.8ZM75.6766 116.48L76.5794 116.05H76.5794L75.6766 116.48ZM79.1566 119.84L78.8109 120.778L78.8397 120.789L78.8692 120.798L79.1566 119.84ZM85.6366 120.56L86.623 120.396L86.4837 119.56H85.6366V120.56ZM85.8766 122V123H87.057L86.863 121.836L85.8766 122ZM53.7166 122L52.7302 121.836L52.5361 123H53.7166V122ZM53.9566 120.56V119.56H53.1094L52.9702 120.396L53.9566 120.56ZM60.3166 119.84L60.6177 120.794L60.6324 120.789L60.6469 120.784L60.3166 119.84ZM63.7966 116.48L62.8774 116.086L63.7966 116.48ZM65.1166 108.8L64.119 108.73L64.1182 108.742L64.1176 108.754L65.1166 108.8ZM65.1166 50.72L64.1177 50.7676L64.1183 50.7794L64.1191 50.7912L65.1166 50.72ZM63.7966 43.28L62.8846 43.6904V43.6904L63.7966 43.28ZM60.3166 40.16L60.0154 41.1136L60.0223 41.1157L60.0292 41.1178L60.3166 40.16ZM53.9566 39.44L52.9702 39.6044L53.1094 40.44H53.9566V39.44ZM53.7166 38V37H52.5361L52.7302 38.1644L53.7166 38ZM91.9966 38.84L91.8395 39.8276L91.8504 39.8293L91.8615 39.8308L91.9966 38.84ZM101.717 41.72L101.279 42.6193L101.288 42.6237L101.717 41.72ZM109.037 47.96L108.208 48.5204L108.216 48.5318L109.037 47.96ZM108.797 69.2L109.632 69.7497L109.638 69.7397L108.797 69.2ZM100.997 76.64L101.495 77.5069L101.503 77.5023L101.511 77.4975L100.997 76.64ZM90.6766 80L90.5685 79.0059L87.5742 79.3313L90.1686 80.8614L90.6766 80ZM98.7166 86.84L97.9446 87.4757L97.9493 87.4814L97.9541 87.487L98.7166 86.84ZM104.717 95.36L105.582 94.859L104.717 95.36ZM109.877 104.36L110.746 103.866L109.877 104.36ZM115.277 112.52L114.486 113.132L114.491 113.138L114.496 113.145L115.277 112.52ZM121.997 118.4L121.486 119.26L121.496 119.266L121.506 119.272L121.997 118.4ZM73.7566 40.76V39.76H72.7566V40.76H73.7566ZM73.7566 77.6H72.7566V78.6H73.7566V77.6ZM99.4366 69.68L98.6228 69.0988L98.6196 69.1033L99.4366 69.68ZM96.9166 45.2L96.2814 45.9725L96.2898 45.9792L96.9166 45.2ZM130.25 120.724L130.49 122.164L132.463 121.836L132.223 120.396L130.25 120.724ZM131.477 121H114.797V123H131.477V121ZM114.797 121C112.97 121 111.217 120.2 109.519 118.428L108.075 119.812C110.057 121.88 112.303 123 114.797 123V121ZM109.532 118.443C107.758 116.514 106.001 114.022 104.268 110.949L102.526 111.931C104.312 115.098 106.155 117.726 108.061 119.797L109.532 118.443ZM104.282 110.975C102.599 107.77 100.797 104.405 98.8745 100.881L97.1187 101.839C99.0364 105.355 100.834 108.71 102.511 111.905L104.282 110.975ZM98.8828 100.897C97.0189 97.3311 94.9111 93.9664 92.559 90.8033L90.9541 91.9967C93.242 95.0736 95.2942 98.3489 97.1103 101.823L98.8828 100.897ZM92.5758 90.8265C90.2745 87.539 87.5938 84.8137 84.5315 82.6618L83.3816 84.2982C86.2393 86.3063 88.7586 88.861 90.9373 91.9735L92.5758 90.8265ZM84.5566 82.68C81.5 80.3876 77.9006 79.1683 73.7973 79.0008L73.7158 80.9992C77.4525 81.1517 80.6531 82.2524 83.3566 84.28L84.5566 82.68ZM72.7566 80V94.88H74.7566V80H72.7566ZM72.7566 94.88C72.7566 100.73 72.8766 105.396 73.119 108.87L75.1141 108.73C74.8765 105.324 74.7566 100.71 74.7566 94.88H72.7566ZM73.119 108.87C73.3616 112.346 73.8917 115.058 74.7737 116.91L76.5794 116.05C75.8614 114.542 75.3516 112.133 75.1141 108.73L73.119 108.87ZM74.7737 116.91C75.6679 118.788 77.0092 120.115 78.8109 120.778L79.5023 118.902C78.264 118.445 77.2852 117.532 76.5794 116.05L74.7737 116.91ZM78.8692 120.798C80.6023 121.318 82.8721 121.56 85.6366 121.56V119.56C82.961 119.56 80.9108 119.322 79.4439 118.882L78.8692 120.798ZM84.6502 120.724L84.8902 122.164L86.863 121.836L86.623 120.396L84.6502 120.724ZM85.8766 121H53.7166V123H85.8766V121ZM54.703 122.164L54.943 120.724L52.9702 120.396L52.7302 121.836L54.703 122.164ZM53.9566 121.56C56.7174 121.56 58.9553 121.319 60.6177 120.794L60.0154 118.886C58.6378 119.321 56.6357 119.56 53.9566 119.56V121.56ZM60.6469 120.784C62.534 120.123 63.8949 118.789 64.7157 116.874L62.8774 116.086C62.2582 117.531 61.2992 118.437 59.9862 118.896L60.6469 120.784ZM64.7157 116.874C65.508 115.025 65.9539 112.32 66.1155 108.846L64.1176 108.754C63.9592 112.16 63.5252 114.575 62.8774 116.086L64.7157 116.874ZM66.1141 108.87C66.3565 105.396 66.4766 100.73 66.4766 94.88H64.4766C64.4766 100.71 64.3566 105.324 64.119 108.73L66.1141 108.87ZM66.4766 94.88V64.52H64.4766V94.88H66.4766ZM66.4766 64.52C66.4766 58.6707 66.3565 54.0435 66.114 50.6487L64.1191 50.7912C64.3566 54.1165 64.4766 58.6893 64.4766 64.52H66.4766ZM66.1154 50.6724C65.9539 47.2806 65.5079 44.6462 64.7085 42.8696L62.8846 43.6904C63.5252 45.1138 63.9592 47.4394 64.1177 50.7676L66.1154 50.6724ZM64.7085 42.8696C63.8763 41.0204 62.4972 39.7701 60.6039 39.2022L60.0292 41.1178C61.336 41.5098 62.2768 42.3396 62.8846 43.6904L64.7085 42.8696ZM60.6177 39.2064C58.9553 38.6814 56.7174 38.44 53.9566 38.44V40.44C56.6357 40.44 58.6378 40.6785 60.0154 41.1136L60.6177 39.2064ZM54.943 39.2756L54.703 37.8356L52.7302 38.1644L52.9702 39.6044L54.943 39.2756ZM53.7166 39H81.5566V37H53.7166V39ZM81.5566 39C84.9421 39 88.3695 39.2755 91.8395 39.8276L92.1537 37.8524C88.5836 37.2844 85.051 37 81.5566 37V39ZM91.8615 39.8308C95.2848 40.2976 98.4217 41.2291 101.279 42.6192L102.154 40.8208C99.0915 39.3309 95.7484 38.3424 92.1317 37.8492L91.8615 39.8308ZM101.288 42.6237C104.171 43.9891 106.471 45.9523 108.208 48.5203L109.865 47.3997C107.922 44.5277 105.342 42.3309 102.145 40.8163L101.288 42.6237ZM108.216 48.5318C109.905 50.9553 110.797 54.2157 110.797 58.4H112.797C112.797 53.9443 111.848 50.2447 109.857 47.3882L108.216 48.5318ZM110.797 58.4C110.797 62.3087 109.841 65.7175 107.955 68.6603L109.638 69.7397C111.752 66.4425 112.797 62.6513 112.797 58.4H110.797ZM107.961 68.6504C106.046 71.5617 103.557 73.9377 100.482 75.7825L101.511 77.4975C104.836 75.5023 107.547 72.9183 109.632 69.7496L107.961 68.6504ZM100.498 75.7731C97.4184 77.5439 94.1114 78.6208 90.5685 79.0059L90.7846 80.9941C94.6018 80.5792 98.1748 79.4161 101.495 77.5069L100.498 75.7731ZM90.1686 80.8614C93.191 82.6438 95.7809 84.8483 97.9446 87.4757L99.4885 86.2043C97.1723 83.3917 94.4022 81.0362 91.1845 79.1386L90.1686 80.8614ZM97.9541 87.487C100.155 90.0808 102.121 92.8719 103.851 95.861L105.582 94.859C103.793 91.7681 101.758 88.8792 99.4791 86.193L97.9541 87.487ZM103.851 95.861C105.61 98.8986 107.328 101.896 109.007 104.854L110.746 103.866C109.065 100.904 107.343 97.9014 105.582 94.859L103.851 95.861ZM109.007 104.854C110.708 107.851 112.534 110.612 114.486 113.132L116.067 111.908C114.179 109.468 112.405 106.789 110.746 103.866L109.007 104.854ZM114.496 113.145C116.488 115.636 118.819 117.676 121.486 119.26L122.507 117.54C120.054 116.084 117.905 114.204 116.057 111.895L114.496 113.145ZM121.506 119.272C124.246 120.813 127.503 121.56 131.237 121.56V119.56C127.77 119.56 124.867 118.867 122.487 117.528L121.506 119.272ZM72.7566 40.76V77.6H74.7566V40.76H72.7566ZM73.7566 78.6H81.3166V76.6H73.7566V78.6ZM81.3166 78.6C85.1922 78.6 88.7995 77.9399 92.128 76.6085L91.3852 74.7515C88.3136 75.9801 84.961 76.6 81.3166 76.6V78.6ZM92.128 76.6085C95.5007 75.2594 98.218 73.1403 100.254 70.2567L98.6196 69.1033C96.8151 71.6597 94.4124 73.5406 91.3852 74.7515L92.128 76.6085ZM100.25 70.2612C102.405 67.2442 103.437 63.3413 103.437 58.64H101.437C101.437 63.0587 100.468 66.5158 98.6228 69.0988L100.25 70.2612ZM103.437 58.64C103.437 52.4264 101.521 47.6202 97.5433 44.4208L96.2898 45.9792C99.6721 48.6997 101.437 52.8536 101.437 58.64H103.437ZM97.5517 44.4276C93.7102 41.269 88.3318 39.76 81.5566 39.76V41.76C88.0614 41.76 92.9229 43.211 96.2815 45.9724L97.5517 44.4276ZM81.5566 39.76H73.7566V41.76H81.5566V39.76Z" fill="#2F4137"/>
</svg>
